<svg xmlns="http://www.w3.org/2000/svg" style="isolation:isolate" viewBox="5523 3440.52 272.48 272.48">
  <path fill="#393E41" fill-rule="evenodd" d="M5523 3576.76c0-75.191 61.049-136.24 136.24-136.24s136.24 61.049 136.24 136.24S5734.431 3713 5659.24 3713 5523 3651.951 5523 3576.76zm106.839-44.768l.579 33.14q.586 0 9.884-1.308 9.306-1.308 15.695-2.759 29.36-6.982 29.36-33.433 0-13.079-7.698-19.182-7.704-6.104-20.204-6.104-15.702 0-21.219 5.518-2.33 2.329-3.781 3.93-1.451 1.594-2.037 5.082-.579 3.488-.722 4.946-.15 1.45 0 5.524.143 4.067.143 4.646zm65.552 61.771q-3.052-3.052-9.162-5.668-6.104-2.615-17.582-2.615-11.485 0-39.101 3.78 0 45.348 1.458 61.335 34.006 0 47.67-4.502 13.665-4.51 18.461-11.049 4.796-6.54 4.796-13.951 0-7.419-.15-10.47-.143-3.052-1.744-8.427-1.594-5.381-4.646-8.433zm-47.527 79.796l-37.5-.872q-3.202-12.207-3.781-109.878v-20.64q0-24.707 4.653-37.643 4.652-12.936 19.475-20.783 7.555-3.781 21.076-3.781 13.515 0 20.784 1.744 19.475 4.066 26.594 15.116 7.125 11.042 7.125 29.652 0 25.865-13.665 38.079 6.976.872 13.958 6.976 6.976 6.103 11.335 12.5 7.555 11.628 7.555 31.682 0 31.397-19.04 44.626-19.039 13.222-58.569 13.222z"/>
</svg>
