<svg xmlns="http://www.w3.org/2000/svg" style="isolation:isolate" viewBox="560 315 40 37.606">
  <path fill="#2E2E2E" fill-rule="evenodd" d="M589.686 352.499C595.835 349.086 600 342.526 600 335c0-11.038-8.962-20-20-20s-20 8.962-20 20c0 6.937 3.539 13.054 8.909 16.642q-.22-5.338-.282-15.832v-3.948q0-4.728.889-7.203.89-2.475 3.727-3.976 1.446-.723 4.032-.723 2.586 0 3.976.333 3.727.779 5.089 2.892 1.363 2.114 1.363 5.673 0 4.95-2.614 7.286 1.335.167 2.669 1.335 1.335 1.168 2.169 2.391 1.446 2.225 1.446 6.062 0 4.089-1.687 6.567zm-16.61-22.584l.111 6.34q.111 0 1.891-.25t3.003-.528q5.617-1.335 5.617-6.396 0-2.503-1.473-3.671-1.474-1.168-3.866-1.168-3.003 0-4.06 1.057-.445.445-.723.751-.278.306-.389.973-.111.667-.139.945-.028.278 0 1.057.028.779.028.89zm12.541 11.818q-.584-.584-1.752-1.084-1.168-.501-3.364-.501-2.197 0-7.481.723 0 8.676.278 11.735 6.507 0 9.121-.862 2.614-.862 3.532-2.113.918-1.252.918-2.67t-.028-2.002q-.028-.584-.334-1.613t-.89-1.613z"/>
</svg>
