<svg xmlns="http://www.w3.org/2000/svg" class="b-highlight" style="isolation:isolate" viewBox="42.28 -13.86 58.72 40">
  <path fill="#9EE493" d="M60.61 20.35l-5.505-.128q-.47-1.792-.555-16.13v-3.03q0-3.627.683-5.526t2.859-3.051q1.109-.555 3.094-.555 1.984 0 3.051.256 2.859.597 3.904 2.219 1.046 1.621 1.046 4.353 0 3.797-2.006 5.59 1.024.128 2.049 1.024 1.024.896 1.664 1.835 1.109 1.707 1.109 4.651 0 4.609-2.795 6.551-2.795 1.941-8.598 1.941zM57.964-.432l.085 4.865q.086 0 1.451-.192 1.366-.192 2.304-.405 4.31-1.025 4.31-4.908 0-1.92-1.13-2.816-1.131-.896-2.966-.896-2.305 0-3.115.81-.342.342-.555.577-.213.234-.299.746-.085.512-.106.726-.022.213 0 .811.021.597.021.682zm9.623 9.068q-.448-.448-1.345-.832-.896-.384-2.581-.384-1.686 0-5.74.555 0 6.657.214 9.004 4.992 0 6.998-.661 2.006-.662 2.71-1.622.704-.96.704-2.048 0-1.089-.022-1.537-.021-.448-.256-1.237-.234-.79-.682-1.238z"/>
  <path fill="#393E41" d="M79.68 3.01q.88 0 .88 1.5v.34l-.04 1.4q-.02.66-.02 1.3l.3 4.52q0 .5-1.02.5h-.29q-.23 0-.32-.18t-.02-.44q.07-.26-.05-.58-.92.98-2.44.98-2.82 0-2.82-4.36 0-2.42.91-3.66.91-1.24 2.61-1.24.8 0 1.6.28.26-.36.72-.36zM77.6 4.83q-1.14 0-1.7.66t-.56 2.42q0 2.96 1.6 2.96.42 0 .93-.38t.71-.86q.38-1.08.38-2.36 0-1.28-.31-1.86-.31-.58-1.05-.58zm4.68.72q0-1.18.84-1.88t1.95-.7q1.11 0 2.13.4 1.02.4 1.02 1.06 0 .34-.26.54t-.45.2q-.19 0-.3-.01-.11-.01-.8-.37-.69-.36-1.27-.36-.58 0-.99.29-.41.29-.41.85t.47.88q.47.32 1.65.55 1.18.23 1.81.65.63.42.63 1.56 0 1.66-.87 2.35-.87.69-2.11.69-1.24 0-2.11-.34-.87-.34-.87-1.02 0-.78.78-.78.2 0 .88.28.68.28 1.35.28t1.02-.43q.35-.43.35-.99t-.46-.81q-.46-.25-1.4-.41-.94-.16-1.38-.34-1.2-.48-1.2-2.14zm8.68-5.84q.36 0 .68.34.32.34.32.71 0 .37-.35.75t-.73.38q-.38 0-.69-.32-.31-.32-.31-.82 0-.96 1.04-1.04h.04zm.84 6v4.48l.02 1.4q0 .38-.3.63t-.64.25q-.5 0-.52-.5-.26-6.38-.26-7.06 0-.68.06-1.66.04-.36.46-.36 1.06 0 1.2.86.06.44.06.7l-.08 1.26zm2.04 1.96q0-1.34.71-2.44.71-1.1 1.81-1.65 1.1-.55 2.14-.55t1.67.25q.63.25.63.66 0 .41-.23.82t-.61.41q-.14 0-.77-.23t-.81-.23q-1.16 0-1.98.85-.82.85-.82 2.25t.45 2.09q.45.69 1.55.69.44 0 1.51-.51t1.33-.51q.26 0 .42.16.16.16.16.4 0 .48-.61 1.01t-1.51.88q-.9.35-1.62.35-1.6 0-2.51-1.26-.91-1.26-.91-3.44z"/>
  <path fill="#393E41" fill-rule="evenodd" d="M42.28 6.14c0-11.038 8.962-20 20-20s20 8.962 20 20-8.962 20-20 20-20-8.962-20-20zM57.964-.432l.085 4.865q.086 0 1.451-.192 1.366-.192 2.304-.405 4.31-1.025 4.31-4.908 0-1.92-1.13-2.816-1.131-.896-2.966-.896-2.305 0-3.115.81-.342.342-.555.577-.213.234-.299.746-.085.512-.106.726-.022.213 0 .811.021.597.021.682zm9.623 9.068q-.448-.448-1.345-.832-.896-.384-2.581-.384-1.686 0-5.74.555 0 6.657.214 9.004 4.992 0 6.998-.661 2.006-.662 2.71-1.622.704-.96.704-2.048 0-1.089-.022-1.537-.021-.448-.256-1.237-.234-.79-.682-1.238zM60.61 20.35l-5.505-.128q-.47-1.792-.555-16.13v-3.03q0-3.627.683-5.526t2.859-3.051q1.109-.555 3.094-.555 1.984 0 3.051.256 2.859.597 3.904 2.219 1.046 1.621 1.046 4.353 0 3.797-2.006 5.59 1.024.128 2.049 1.024 1.024.896 1.664 1.835 1.109 1.707 1.109 4.651 0 4.609-2.795 6.551-2.795 1.941-8.598 1.941z"/>
</svg>
